:SAMPLES-PER-SECOND 30
:FULLY-SPECIFIED
:DEGREES
96
root  2.5237 26.2192 -3.12774 -153.396 87.6151 -151.466
RightUpLeg  -57.3811 -8.3365 4.78239
RightLeg  115.648 12.4047 -1.60332
RightFoot  7.34082 -0.0418722 -0.106186
RightToes  2.21189e-009 -3.18055e-015 8.94531e-016
Spine  42.3391 -1.24281 -1.10245
Spine1  -4.06715 -1.60146 1.15067
HEad  -26.6442 0.0300939 3.4947
LeftShoulder1  0 0 -2.47967e-037
LeftArm  -12.421 -43.9505 -63.1869
LeftForeArm  -138.451 -48.3153 169.936
LeftHand  0.631634 5.97317 13.7977
RightShoulder  -2.48481e-017 0 -8.08114e-019
RightArm  -3.32558 37.1853 70.9693
RightForeArm  -92.6175 46.0281 -155.116
RightHand  3.26667 -15.322 -21.4869
LeftUpLeg  -56.5545 -0.852935 3.98894
LeftLeg  113.896 -14.7608 1.84335
LeftFoot  11.4388 0.749335 -2.81771
LeftToes  -2.77942e-009 -2.0471e-010 1.20669e-012
97
root  3.63039 27.0023 -3.06536 -154.902 87.4372 -153.467
RightUpLeg  -61.6256 -8.5444 5.32403
RightLeg  112.639 11.4096 0.140267
RightFoot  1.20412 -0.010727 0.294077
RightToes  2.21189e-009 -3.18055e-015 8.94531e-016
Spine  43.983 -1.42301 -0.456579
Spine1  -4.69993 -1.36472 0.751815
HEad  -26.5171 -0.354233 3.95358
LeftShoulder1  0 0 -2.47967e-037
LeftArm  -12.0917 -44.6326 -64.1374
LeftForeArm  -137.629 -48.9804 169.402
LeftHand  0.653635 6.03434 13.2489
RightShoulder  -2.48481e-017 0 -8.08114e-019
RightArm  -4.32302 37.6649 69.8168
RightForeArm  -93.0705 46.2199 -154.898
RightHand  3.10258 -14.996 -20.6681
LeftUpLeg  -60.4232 -0.328157 2.99635
LeftLeg  112.252 -14.9585 2.60574
LeftFoot  3.344 0.0939287 -0.660744
LeftToes  -2.77942e-009 -2.0471e-010 1.20669e-012
98
root  4.64074 27.4832 -2.99007 -159.015 87.3488 -158.291
RightUpLeg  -66.0213 -8.64602 6.03717
RightLeg  107.747 10.6541 2.12197
RightFoot  -2.99389 -0.177734 1.83474
RightToes  2.21189e-009 -3.18055e-015 8.94531e-016
Spine  45.984 -1.56253 -0.316546
Spine1  -5.20854 -1.20615 0.271324
HEad  -27.0642 -0.23474 3.7472
LeftShoulder1  0 0 -2.47967e-037
LeftArm  -12.2268 -45.1947 -64.829
LeftForeArm  -136.225 -49.1525 169.174
LeftHand  0.571234 5.68897 12.8582
RightShoulder  -2.48481e-017 0 -8.08114e-019
RightArm  -4.65465 38.5598 69.7593
RightForeArm  -93.813 46.2537 -154.904
RightHand  2.8078 -14.3375 -19.3213
LeftUpLeg  -65.2016 0.479305 1.17626
LeftLeg  108.734 -14.7632 2.98992
LeftFoot  -2.91869 0.139209 -1.66401
LeftToes  -2.77942e-009 -2.0471e-010 1.20669e-012
99
root  5.58161 27.6559 -2.91694 -162.273 87.3183 -162.039
RightUpLeg  -69.6927 -8.81122 6.83815
RightLeg  101.656 10.2897 4.08349
RightFoot  -8.06547 -0.0952802 2.48844
RightToes  2.21189e-009 -3.18055e-015 8.94531e-016
Spine  48.6826 -1.79151 0.0956805
Spine1  -5.62439 -1.03404 -0.455331
HEad  -28.1424 -0.163145 3.3413
LeftShoulder1  0 0 -2.47967e-037
LeftArm  -12.2556 -46.0088 -65.5093
LeftForeArm  -134.709 -49.2229 169.012
LeftHand  0.425517 5.17208 13.5932
RightShoulder  -2.48481e-017 0 -8.08114e-019
RightArm  -4.36325 39.2108 69.9661
RightForeArm  -92.8728 46.4656 -154.563
RightHand  2.91874 -14.4647 -20.279
LeftUpLeg  -69.1996 1.34226 -1.08005
LeftLeg  103.662 -13.8591 1.4305
LeftFoot  -7.42315 0.169271 -3.78279
LeftToes  -2.77942e-009 -2.0471e-010 1.20669e-012
100
root  6.48265 27.4163 -2.84894 -163.458 87.3197 -163.449
RightUpLeg  -72.4681 -8.87714 7.56421
RightLeg  95.2506 10.6279 3.7075
RightFoot  -11.2821 -0.0584785 3.62458
RightToes  2.21189e-009 -3.18055e-015 8.94531e-016
Spine  51.6368 -2.10544 0.757972
Spine1  -5.76895 -0.70667 -1.56109
HEad  -29.8132 -0.47304 2.88901
LeftShoulder1  0 0 -2.47967e-037
LeftArm  -11.9477 -47.0344 -66.212
LeftForeArm  -134.134 -49.3667 168.864
LeftHand  0.338827 4.95187 14.7628
RightShoulder  -2.48481e-017 0 -8.08114e-019
RightArm  -4.10046 40.2107 69.8212
RightForeArm  -91.5916 46.7849 -154.042
RightHand  3.06523 -14.711 -21.2641
LeftUpLeg  -72.2277 2.08169 -3.24213
LeftLeg  98.0901 -12.9792 -1.4833
LeftFoot  -11.187 0.0785051 -5.79858
LeftToes  -2.77942e-009 -2.0471e-010 1.20669e-012
101
root  7.45937 26.627 -2.81292 -174.283 86.7733 -174.077
RightUpLeg  -74.2685 -9.33731 7.02512
RightLeg  90.9194 10.9135 2.13889
RightFoot  -11.2665 -0.051193 4.47801
RightToes  2.21189e-009 -3.18055e-015 8.94531e-016
Spine  54.4171 -2.62578 1.03393
Spine1  -5.77038 -0.781872 -2.25636
HEad  -31.5384 -0.976829 2.15451
LeftShoulder1  0 0 -2.47967e-037
LeftArm  -11.8329 -47.5273 -66.6203
LeftForeArm  -132.998 -49.4254 168.737
LeftHand  0.186072 4.46601 15.5727
RightShoulder  -2.48481e-017 0 -8.08114e-019
RightArm  -3.77544 41.2607 69.8302
RightForeArm  -91.724 46.8619 -153.948
RightHand  3.12629 -14.966 -21.0649
LeftUpLeg  -73.9603 1.8244 -5.47567
LeftLeg  92.8616 -12.7967 -1.88243
LeftFoot  -12.9092 -0.0191877 -6.88795
LeftToes  -2.77942e-009 -2.0471e-010 1.20669e-012
102
root  8.64804 25.1575 -2.70228 175.196 86.1574 175.627
RightUpLeg  -76.155 -9.16072 6.5756
RightLeg  92.8145 11.0641 0.263925
RightFoot  -12.5676 -0.0509951 -0.500072
RightToes  2.21189e-009 -3.18055e-015 8.94531e-016
Spine  55.7004 -2.84193 0.935639
Spine1  -5.37957 -0.786467 -2.51741
HEad  -32.4381 -1.36519 1.96935
LeftShoulder1  0 0 -2.47967e-037
LeftArm  -11.0886 -47.3242 -67.8376
LeftForeArm  -131.652 -49.5732 168.529
LeftHand  0.0851438 4.13196 15.7969
RightShoulder  -2.48481e-017 0 -8.08114e-019
RightArm  -3.83157 41.27 70.234
RightForeArm  -91.5517 47.0778 -153.641
RightHand  3.16313 -15.1365 -20.9026
LeftUpLeg  -75.3455 0.889632 -6.93312
LeftLeg  90.8427 -13.0891 2.09595
LeftFoot  -14.0684 -0.0318551 -1.83701
LeftToes  -2.77942e-009 -2.0471e-010 1.20669e-012
103
root  9.97061 23.1777 -2.58702 -175.213 86.1388 -174.402
RightUpLeg  -78.61 -7.82267 7.61146
RightLeg  100.505 11.755 -2.24283
RightFoot  -18.5228 -0.292021 -6.58403
RightToes  2.21189e-009 -3.18055e-015 8.94531e-016
Spine  55.5087 -2.82466 1.53256
Spine1  -4.68068 -0.186572 -2.86411
HEad  -32.2671 -1.54516 2.20512
LeftShoulder1  0 0 -2.47967e-037
LeftArm  -10.8318 -46.8841 -68.8528
LeftForeArm  -131.922 -49.843 168.345
LeftHand  0.0993302 4.16287 15.6136
RightShoulder  -2.48481e-017 0 -8.08114e-019
RightArm  -3.86788 40.3849 71.1411
RightForeArm  -91.0582 47.1716 -153.477
RightHand  3.08292 -14.972 -20.5252
LeftUpLeg  -78.0816 0.154393 -6.5859
LeftLeg  96.8264 -14.1299 5.64707
LeftFoot  -19.5405 0.12259 3.60215
LeftToes  -2.77942e-009 -2.0471e-010 1.20669e-012
104
root  11.3072 20.8692 -2.60118 -159.639 85.1703 -157.328
RightUpLeg  -81.0689 -7.30107 8.9132
RightLeg  110.463 13.0268 -3.82396
RightFoot  -24.5235 -0.592312 -6.14619
RightToes  2.21189e-009 -3.18055e-015 8.94531e-016
Spine  56.0106 -3.64132 3.53731
Spine1  -4.86546 -0.0458918 -2.84902
HEad  -32.7012 -1.72747 1.90347
LeftShoulder1  0 0 -2.47967e-037
LeftArm  -11.6746 -46.8787 -68.6891
LeftForeArm  -132.478 -49.8708 168.365
LeftHand  0.193229 4.42133 14.8478
RightShoulder  -2.48481e-017 0 -8.08114e-019
RightArm  -3.31722 39.496 72.3373
RightForeArm  -90.5943 47.0551 -153.605
RightHand  3.02463 -14.8893 -20.0901
LeftUpLeg  -82.2104 -1.38528 -4.84527
LeftLeg  107.854 -16.1923 6.84655
LeftFoot  -24.3891 0.258844 3.46092
LeftToes  -2.77942e-009 -2.0471e-010 1.20669e-012
105
root  12.6697 18.5603 -2.60271 -161.585 84.4238 -157.297
RightUpLeg  -83.2667 -7.56874 8.68828
RightLeg  120.955 14.1713 -3.83634
RightFoot  -28.8557 -0.665243 -4.84897
RightToes  2.21189e-009 -3.18055e-015 8.94531e-016
Spine  56.5446 -4.00221 3.89611
Spine1  -4.90248 -0.524953 -2.29427
HEad  -34.3207 -1.67345 2.1563
LeftShoulder1  0 0 -2.47967e-037
LeftArm  -12.3794 -47.2738 -68.2859
LeftForeArm  -131.391 -49.8641 168.29
LeftHand  0.196871 4.4163 14.6796
RightShoulder  -2.48481e-017 0 -8.08114e-019
RightArm  -2.84626 39.1981 73.3933
RightForeArm  -88.9933 46.8941 -153.715
RightHand  2.90122 -14.4834 -20.022
LeftUpLeg  -85.4303 -2.72142 -4.68249
LeftLeg  117.947 -18.4783 7.45822
LeftFoot  -26.5824 0.204033 2.47627
LeftToes  -2.77942e-009 -2.0471e-010 1.20669e-012
106
root  13.9264 16.7196 -2.53339 -171.35 84.9121 -164.222
RightUpLeg  -82.9074 -7.54749 7.95197
RightLeg  129.713 15.1833 -3.55969
RightFoot  -32.876 -0.549081 -3.2587
RightToes  2.21189e-009 -3.18055e-015 8.94531e-016
Spine  56.9475 -3.35393 2.6779
Spine1  -3.55171 -0.615867 -1.94505
HEad  -35.3996 -1.76318 3.4096
LeftShoulder1  0 0 -2.47967e-037
LeftArm  -12.5622 -47.9576 -67.9886
LeftForeArm  -130.86 -50.1586 168.025
LeftHand  0.180096 4.36332 14.7755
RightShoulder  -2.48481e-017 0 -8.08114e-019
RightArm  -3.53946 39.5634 73.1662
RightForeArm  -88.6081 47.1321 -153.363
RightHand  2.81997 -14.1387 -20.2427
LeftUpLeg  -85.5754 -2.16122 -5.32234
LeftLeg  126.657 -19.8423 6.57463
LeftFoot  -29.7114 0.026458 0.821066
LeftToes  -2.77942e-009 -2.0471e-010 1.20669e-012
